<?xml version="1.0" encoding="UTF-8"?>
<svg width="30px" height="29px" viewBox="0 0 30 29" version="1.1" xmlns="http://www.w3.org/2000/svg" xmlns:xlink="http://www.w3.org/1999/xlink">
    <!-- Generator: Sketch 60.1 (88133) - https://sketch.com -->
    <title>facebook-circular-logo</title>
    <desc>Created with Sketch.</desc>
    <g id="Page-1" stroke="none" stroke-width="1" fill="none" fill-rule="evenodd">
        <g id="login" transform="translate(-104.000000, -409.000000)" fill="#4267B2" fill-rule="nonzero">
            <g id="facebook-circular-logo" transform="translate(104.000000, 409.000000)">
                <path d="M15.0000895,0 C6.71585439,0 0,6.51913344 0,14.5607065 C0,21.7730581 5.40782669,27.7460934 12.4983747,28.9027306 L12.4983747,17.5984643 L8.87991554,17.5984643 L8.87991554,13.5305195 L12.4983747,13.5305195 L12.4983747,10.5309747 C12.4983747,7.05064118 14.6882027,5.15406178 17.8870551,5.15406178 C19.4191116,5.15406178 20.7357283,5.2648794 21.1179372,5.31368779 L21.1179372,8.95156296 L18.8993004,8.95260513 C17.1600351,8.95260513 16.8247076,9.7547302 16.8247076,10.9322109 L16.8247076,13.5284351 L20.9747878,13.5284351 L20.4335041,17.5963799 L16.8247076,17.5963799 L16.8247076,29 C24.2462886,28.1231859 30,21.9979935 30,14.5565378 C30,6.51913344 23.2841456,0 15.0000895,0 Z" id="Path"></path>
            </g>
        </g>
    </g>
</svg>