<?xml version="1.0" encoding="UTF-8"?>
<svg width="21px" height="20px" viewBox="0 0 21 20" version="1.1" xmlns="http://www.w3.org/2000/svg" xmlns:xlink="http://www.w3.org/1999/xlink">
    <!-- Generator: Sketch 60.1 (88133) - https://sketch.com -->
    <title>ring</title>
    <desc>Created with Sketch.</desc>
    <g id="Page-1" stroke="none" stroke-width="1" fill="none" fill-rule="evenodd">
        <g id="kopen" transform="translate(-1362.000000, -23.000000)" fill="#FFFFFF" fill-rule="nonzero">
            <g id="ring" transform="translate(1362.000000, 23.000000)">
                <path d="M20.690297,14.2930078 C18.2203401,11.94 17.8486571,10.7593359 17.8486571,7 C17.8486571,3.13398437 14.558676,0 10.5000634,0 C6.4414508,0 3.15146976,3.13402344 3.15146976,7 C3.15146976,9.02699219 3.09478626,9.78367187 2.80181212,10.7126562 C2.43747091,11.87 1.68951118,12.9780078 0.309460662,14.2930078 C-0.351669135,14.9230078 0.116646518,16 1.05184228,16 L6.8782665,16 L6.82539745,16.5 C6.82539745,18.4330078 8.47040848,20 10.4996943,20 C12.5289801,20 14.1739911,18.4330078 14.1739911,16.5 L14.121122,16 L19.9479154,16 C20.8834803,16 21.351796,14.9230078 20.690297,14.2930078 Z M10.5003915,19 C9.05102473,19 7.8757649,17.8803516 7.8757649,16.5 L7.92863396,16 L13.0715339,16 L13.1251002,16.5 C13.1251002,17.8803516 11.9497583,19 10.5003915,19 Z M1.0521704,15 C4.20146807,12 4.20146807,10 4.20146807,7 C4.20146807,3.68667969 7.02141081,1 10.5000634,1 C13.978716,1 16.7986588,3.68667969 16.7989869,7 C16.7989869,10 16.7989869,12 19.9482845,15 L1.0521704,15 Z" id="Shape"></path>
            </g>
        </g>
    </g>
</svg>